<mxfile host="app.diagrams.net" modified="2023-05-25T17:40:07.297Z" agent="Mozilla/5.0 (Windows NT 10.0; Win64; x64) AppleWebKit/537.36 (KHTML, like Gecko) Chrome/113.0.0.0 Safari/537.36" etag="kGsop5imMMf5Odts6Rqk" version="21.3.4" type="google">
  <diagram name="PÃ¡gina-1" id="PjxWEcMl0LMcTCYYMFeP">
    <mxGraphModel grid="1" page="1" gridSize="10" guides="1" tooltips="1" connect="1" arrows="1" fold="1" pageScale="1" pageWidth="1169" pageHeight="827" math="0" shadow="0">
      <root>
        <mxCell id="0" />
        <mxCell id="1" parent="0" />
        <mxCell id="lidMp0GeqIiUsfrIBxHL-1" value="" style="whiteSpace=wrap;html=1;strokeColor=#d2d1d1;" vertex="1" parent="1">
          <mxGeometry x="5" y="5" width="1157" height="817" as="geometry" />
        </mxCell>
        <mxCell id="lidMp0GeqIiUsfrIBxHL-5" value="" style="whiteSpace=wrap;html=1;rounded=1;fillColor=#B9E0A5;" vertex="1" parent="1">
          <mxGeometry x="10" y="20" width="120" height="790" as="geometry" />
        </mxCell>
        <mxCell id="lidMp0GeqIiUsfrIBxHL-6" value="" style="whiteSpace=wrap;html=1;rounded=1;fillColor=#B9E0A5;" vertex="1" parent="1">
          <mxGeometry x="140" y="20" width="120" height="790" as="geometry" />
        </mxCell>
        <mxCell id="lidMp0GeqIiUsfrIBxHL-7" value="" style="whiteSpace=wrap;html=1;rounded=1;arcSize=3;imageHeight=24;fillColor=#D5E8D4;" vertex="1" parent="1">
          <mxGeometry x="270" y="20" width="750" height="670" as="geometry" />
        </mxCell>
        <mxCell id="lidMp0GeqIiUsfrIBxHL-8" value="" style="whiteSpace=wrap;html=1;rounded=1;fillColor=#FFF2CC;" vertex="1" parent="1">
          <mxGeometry x="1030" y="20" width="120" height="790" as="geometry" />
        </mxCell>
        <mxCell id="lidMp0GeqIiUsfrIBxHL-9" value="CHANNEL" style="text;strokeColor=none;align=center;fillColor=none;html=1;verticalAlign=middle;whiteSpace=wrap;rounded=0;fontStyle=1" vertex="1" parent="1">
          <mxGeometry x="40" y="30" width="60" height="30" as="geometry" />
        </mxCell>
        <mxCell id="lidMp0GeqIiUsfrIBxHL-11" value="GATEWAY INBOUND" style="text;strokeColor=none;align=center;fillColor=none;html=1;verticalAlign=middle;whiteSpace=wrap;rounded=0;fontStyle=1" vertex="1" parent="1">
          <mxGeometry x="170" y="30" width="60" height="30" as="geometry" />
        </mxCell>
        <mxCell id="lidMp0GeqIiUsfrIBxHL-12" value="EXECUTION LOGIC" style="text;strokeColor=none;align=center;fillColor=none;html=1;verticalAlign=middle;whiteSpace=wrap;rounded=0;fontStyle=1" vertex="1" parent="1">
          <mxGeometry x="280" y="30" width="120" height="30" as="geometry" />
        </mxCell>
        <mxCell id="lidMp0GeqIiUsfrIBxHL-13" value="GATEWAY OUTBOUND" style="text;strokeColor=none;align=center;fillColor=none;html=1;verticalAlign=middle;whiteSpace=wrap;rounded=0;fontStyle=1" vertex="1" parent="1">
          <mxGeometry x="1060" y="30" width="60" height="30" as="geometry" />
        </mxCell>
        <mxCell id="lidMp0GeqIiUsfrIBxHL-14" value="" style="whiteSpace=wrap;html=1;rounded=1;fillColor=#FFCCE6;" vertex="1" parent="1">
          <mxGeometry x="270" y="700" width="750" height="110" as="geometry" />
        </mxCell>
        <mxCell id="lidMp0GeqIiUsfrIBxHL-15" value="DATA" style="text;strokeColor=none;align=center;fillColor=none;html=1;verticalAlign=middle;whiteSpace=wrap;rounded=0;fontStyle=1" vertex="1" parent="1">
          <mxGeometry x="280" y="700" width="50" height="30" as="geometry" />
        </mxCell>
        <mxCell id="uTCx9pWXb5JIzM2R5Hj2-11" style="edgeStyle=orthogonalEdgeStyle;rounded=0;orthogonalLoop=1;jettySize=auto;html=1;entryX=0;entryY=0.5;entryDx=0;entryDy=0;entryPerimeter=0;" edge="1" parent="1" source="lidMp0GeqIiUsfrIBxHL-16" target="lidMp0GeqIiUsfrIBxHL-17">
          <mxGeometry relative="1" as="geometry" />
        </mxCell>
        <mxCell id="uTCx9pWXb5JIzM2R5Hj2-57" value="&lt;b&gt;&lt;font color=&quot;#cc0000&quot; style=&quot;font-size: 10px;&quot;&gt;Env. Prop.&lt;/font&gt;&lt;/b&gt;" style="edgeLabel;html=1;align=center;verticalAlign=middle;resizable=0;points=[];labelBackgroundColor=#B9E0A5;labelBorderColor=default;" connectable="0" vertex="1" parent="uTCx9pWXb5JIzM2R5Hj2-11">
          <mxGeometry x="0.2001" relative="1" as="geometry">
            <mxPoint x="-13" as="offset" />
          </mxGeometry>
        </mxCell>
        <mxCell id="lidMp0GeqIiUsfrIBxHL-16" value="&lt;b&gt;&lt;font style=&quot;font-size: 10px;&quot;&gt;Clientes APP&#39;s&lt;/font&gt;&lt;/b&gt;" style="image;sketch=0;aspect=fixed;html=1;points=[];align=center;fontSize=12;image=img/lib/mscae/Devices_Groups.svg;labelBackgroundColor=#B9E0A5;" vertex="1" parent="1">
          <mxGeometry x="45" y="80" width="50" height="50" as="geometry" />
        </mxCell>
        <mxCell id="uTCx9pWXb5JIzM2R5Hj2-12" style="edgeStyle=orthogonalEdgeStyle;rounded=0;orthogonalLoop=1;jettySize=auto;html=1;entryX=0;entryY=0.5;entryDx=0;entryDy=0;entryPerimeter=0;" edge="1" parent="1" source="lidMp0GeqIiUsfrIBxHL-17" target="uTCx9pWXb5JIzM2R5Hj2-4">
          <mxGeometry relative="1" as="geometry" />
        </mxCell>
        <mxCell id="rW1r06RY9FfZZGZYce1W-1" value="&lt;b&gt;&lt;font color=&quot;#cc0000&quot;&gt;00&lt;/font&gt;&lt;/b&gt;" style="edgeLabel;html=1;align=center;verticalAlign=middle;resizable=0;points=[];labelBackgroundColor=#D5E8D4;" connectable="0" vertex="1" parent="uTCx9pWXb5JIzM2R5Hj2-12">
          <mxGeometry x="-0.2667" relative="1" as="geometry">
            <mxPoint x="28" as="offset" />
          </mxGeometry>
        </mxCell>
        <mxCell id="lidMp0GeqIiUsfrIBxHL-17" value="&lt;font style=&quot;font-size: 10px;&quot;&gt;&lt;font style=&quot;font-size: 10px;&quot;&gt;Apigee&lt;/font&gt;&lt;br&gt;&lt;b&gt;API GATEWAY&lt;/b&gt;&lt;/font&gt;" style="sketch=0;points=[[0,0,0],[0.25,0,0],[0.5,0,0],[0.75,0,0],[1,0,0],[0,1,0],[0.25,1,0],[0.5,1,0],[0.75,1,0],[1,1,0],[0,0.25,0],[0,0.5,0],[0,0.75,0],[1,0.25,0],[1,0.5,0],[1,0.75,0]];outlineConnect=0;fontColor=#232F3E;gradientColor=#945DF2;gradientDirection=north;fillColor=#5A30B5;strokeColor=#ffffff;dashed=0;verticalLabelPosition=bottom;verticalAlign=top;align=center;html=1;fontSize=12;fontStyle=0;shape=mxgraph.aws4.resourceIcon;resIcon=mxgraph.aws4.api_gateway;" vertex="1" parent="1">
          <mxGeometry x="175" y="80" width="50" height="50" as="geometry" />
        </mxCell>
        <mxCell id="uTCx9pWXb5JIzM2R5Hj2-13" style="edgeStyle=orthogonalEdgeStyle;rounded=0;orthogonalLoop=1;jettySize=auto;html=1;" edge="1" parent="1" source="uTCx9pWXb5JIzM2R5Hj2-4" target="uTCx9pWXb5JIzM2R5Hj2-5">
          <mxGeometry relative="1" as="geometry" />
        </mxCell>
        <mxCell id="uTCx9pWXb5JIzM2R5Hj2-58" value="01" style="edgeLabel;html=1;align=center;verticalAlign=middle;resizable=0;points=[];fontColor=#CC0000;fontStyle=1;labelBackgroundColor=#D5E8D4;" connectable="0" vertex="1" parent="uTCx9pWXb5JIzM2R5Hj2-13">
          <mxGeometry x="0.3656" relative="1" as="geometry">
            <mxPoint as="offset" />
          </mxGeometry>
        </mxCell>
        <mxCell id="uTCx9pWXb5JIzM2R5Hj2-14" style="edgeStyle=orthogonalEdgeStyle;rounded=0;orthogonalLoop=1;jettySize=auto;html=1;" edge="1" parent="1" source="uTCx9pWXb5JIzM2R5Hj2-4" target="uTCx9pWXb5JIzM2R5Hj2-6">
          <mxGeometry relative="1" as="geometry" />
        </mxCell>
        <mxCell id="uTCx9pWXb5JIzM2R5Hj2-60" value="&lt;b&gt;&lt;font color=&quot;#cc0000&quot;&gt;02&lt;/font&gt;&lt;/b&gt;" style="edgeLabel;html=1;align=center;verticalAlign=middle;resizable=0;points=[];labelBackgroundColor=#D5E8D4;" connectable="0" vertex="1" parent="uTCx9pWXb5JIzM2R5Hj2-14">
          <mxGeometry x="0.6225" y="-1" relative="1" as="geometry">
            <mxPoint as="offset" />
          </mxGeometry>
        </mxCell>
        <mxCell id="uTCx9pWXb5JIzM2R5Hj2-15" style="edgeStyle=orthogonalEdgeStyle;rounded=0;orthogonalLoop=1;jettySize=auto;html=1;" edge="1" parent="1" source="uTCx9pWXb5JIzM2R5Hj2-4" target="uTCx9pWXb5JIzM2R5Hj2-7">
          <mxGeometry relative="1" as="geometry" />
        </mxCell>
        <mxCell id="uTCx9pWXb5JIzM2R5Hj2-61" value="&lt;b&gt;&lt;font color=&quot;#cc0000&quot;&gt;03&lt;/font&gt;&lt;/b&gt;" style="edgeLabel;html=1;align=center;verticalAlign=middle;resizable=0;points=[];labelBackgroundColor=#D5E8D4;" connectable="0" vertex="1" parent="uTCx9pWXb5JIzM2R5Hj2-15">
          <mxGeometry x="0.7324" y="-1" relative="1" as="geometry">
            <mxPoint as="offset" />
          </mxGeometry>
        </mxCell>
        <mxCell id="uTCx9pWXb5JIzM2R5Hj2-54" style="edgeStyle=orthogonalEdgeStyle;rounded=0;orthogonalLoop=1;jettySize=auto;html=1;entryX=0.5;entryY=1.417;entryDx=0;entryDy=0;entryPerimeter=0;" edge="1" parent="1" source="uTCx9pWXb5JIzM2R5Hj2-4" target="uTCx9pWXb5JIzM2R5Hj2-51">
          <mxGeometry relative="1" as="geometry" />
        </mxCell>
        <mxCell id="uTCx9pWXb5JIzM2R5Hj2-65" value="&lt;b&gt;&lt;font color=&quot;#cc0000&quot;&gt;04&lt;/font&gt;&lt;/b&gt;" style="edgeLabel;html=1;align=center;verticalAlign=middle;resizable=0;points=[];labelBackgroundColor=#D5E8D4;" connectable="0" vertex="1" parent="uTCx9pWXb5JIzM2R5Hj2-54">
          <mxGeometry x="0.4219" relative="1" as="geometry">
            <mxPoint as="offset" />
          </mxGeometry>
        </mxCell>
        <mxCell id="uTCx9pWXb5JIzM2R5Hj2-4" value="&lt;font style=&quot;font-size: 10px;&quot;&gt;sboot-archhex-&lt;br&gt;orch-crdt-&lt;br&gt;proposta-credito&lt;br&gt;&lt;/font&gt;" style="outlineConnect=0;dashed=0;verticalLabelPosition=bottom;verticalAlign=top;align=center;html=1;shape=mxgraph.aws3.application_load_balancer;fillColor=#F58534;gradientColor=none;" vertex="1" parent="1">
          <mxGeometry x="315" y="80" width="50" height="50" as="geometry" />
        </mxCell>
        <mxCell id="uTCx9pWXb5JIzM2R5Hj2-16" style="edgeStyle=orthogonalEdgeStyle;rounded=0;orthogonalLoop=1;jettySize=auto;html=1;" edge="1" parent="1" source="uTCx9pWXb5JIzM2R5Hj2-5" target="uTCx9pWXb5JIzM2R5Hj2-8">
          <mxGeometry relative="1" as="geometry">
            <Array as="points">
              <mxPoint x="340" y="620" />
              <mxPoint x="340" y="620" />
            </Array>
          </mxGeometry>
        </mxCell>
        <mxCell id="uTCx9pWXb5JIzM2R5Hj2-62" value="&lt;font color=&quot;#cc0000&quot; style=&quot;font-size: 10px;&quot;&gt;&lt;b&gt;Grava dados de &lt;br&gt;Cadastro no DB&lt;/b&gt;&lt;/font&gt;" style="edgeLabel;html=1;align=center;verticalAlign=middle;resizable=0;points=[];labelBackgroundColor=#D5E8D4;" connectable="0" vertex="1" parent="uTCx9pWXb5JIzM2R5Hj2-16">
          <mxGeometry x="-0.4352" y="-1" relative="1" as="geometry">
            <mxPoint as="offset" />
          </mxGeometry>
        </mxCell>
        <mxCell id="uTCx9pWXb5JIzM2R5Hj2-5" value="&lt;font style=&quot;font-size: 10px;&quot;&gt;sboot-archex-&lt;br&gt;atom-crdt-&lt;br&gt;&lt;/font&gt;&lt;font style=&quot;font-size: 10px;&quot;&gt;cadastro&lt;/font&gt;" style="image;sketch=0;aspect=fixed;html=1;points=[];align=center;fontSize=12;image=img/lib/mscae/Batch_Accounts.svg;labelBackgroundColor=#D5E8D4;" vertex="1" parent="1">
          <mxGeometry x="315" y="229" width="50" height="48" as="geometry" />
        </mxCell>
        <mxCell id="uTCx9pWXb5JIzM2R5Hj2-21" style="edgeStyle=orthogonalEdgeStyle;rounded=0;orthogonalLoop=1;jettySize=auto;html=1;" edge="1" parent="1" target="uTCx9pWXb5JIzM2R5Hj2-9">
          <mxGeometry relative="1" as="geometry">
            <mxPoint x="415.02857142857147" y="269" as="sourcePoint" />
            <mxPoint x="412.1296" y="722.76" as="targetPoint" />
            <Array as="points" />
          </mxGeometry>
        </mxCell>
        <mxCell id="uTCx9pWXb5JIzM2R5Hj2-63" value="&lt;b style=&quot;font-size: 10px;&quot;&gt;&lt;font color=&quot;#cc0000&quot;&gt;Grava dados&lt;br&gt;Financeiros no DB&lt;/font&gt;&lt;/b&gt;" style="edgeLabel;html=1;align=center;verticalAlign=middle;resizable=0;points=[];labelBackgroundColor=#D5E8D4;" connectable="0" vertex="1" parent="uTCx9pWXb5JIzM2R5Hj2-21">
          <mxGeometry x="-0.4364" y="-2" relative="1" as="geometry">
            <mxPoint x="2" y="35" as="offset" />
          </mxGeometry>
        </mxCell>
        <mxCell id="uTCx9pWXb5JIzM2R5Hj2-6" value="&lt;font style=&quot;border-color: var(--border-color); font-size: 10px;&quot;&gt;sboot-archex-&lt;br style=&quot;border-color: var(--border-color);&quot;&gt;atom-crdt-&lt;br style=&quot;border-color: var(--border-color);&quot;&gt;&lt;/font&gt;&lt;font style=&quot;border-color: var(--border-color); font-size: 10px;&quot;&gt;financeiro&lt;/font&gt;" style="image;sketch=0;aspect=fixed;html=1;points=[];align=center;fontSize=12;image=img/lib/mscae/Batch_Accounts.svg;labelBackgroundColor=#D5E8D4;" vertex="1" parent="1">
          <mxGeometry x="390" y="229" width="50" height="48" as="geometry" />
        </mxCell>
        <mxCell id="uTCx9pWXb5JIzM2R5Hj2-20" style="edgeStyle=orthogonalEdgeStyle;rounded=0;orthogonalLoop=1;jettySize=auto;html=1;" edge="1" parent="1" source="uTCx9pWXb5JIzM2R5Hj2-7" target="uTCx9pWXb5JIzM2R5Hj2-10">
          <mxGeometry relative="1" as="geometry">
            <Array as="points">
              <mxPoint x="495" y="620" />
              <mxPoint x="495" y="620" />
            </Array>
          </mxGeometry>
        </mxCell>
        <mxCell id="uTCx9pWXb5JIzM2R5Hj2-64" value="&lt;b&gt;&lt;font color=&quot;#cc0000&quot;&gt;Grava a Proposta &lt;br&gt;no DB&lt;/font&gt;&lt;/b&gt;" style="edgeLabel;html=1;align=center;verticalAlign=middle;resizable=0;points=[];labelBackgroundColor=#D5E8D4;" connectable="0" vertex="1" parent="uTCx9pWXb5JIzM2R5Hj2-20">
          <mxGeometry x="-0.4349" y="-1" relative="1" as="geometry">
            <mxPoint x="1" as="offset" />
          </mxGeometry>
        </mxCell>
        <mxCell id="uTCx9pWXb5JIzM2R5Hj2-7" value="&lt;font style=&quot;border-color: var(--border-color); font-size: 10px;&quot;&gt;sboot-archex-&lt;br style=&quot;border-color: var(--border-color);&quot;&gt;atom-crdt-&lt;br style=&quot;border-color: var(--border-color);&quot;&gt;&lt;/font&gt;&lt;font style=&quot;border-color: var(--border-color); font-size: 10px;&quot;&gt;proposta&lt;/font&gt;" style="image;sketch=0;aspect=fixed;html=1;points=[];align=center;fontSize=12;image=img/lib/mscae/Batch_Accounts.svg;labelBackgroundColor=#D5E8D4;" vertex="1" parent="1">
          <mxGeometry x="470" y="229" width="50" height="48" as="geometry" />
        </mxCell>
        <mxCell id="uTCx9pWXb5JIzM2R5Hj2-8" value="&lt;font style=&quot;font-size: 10px;&quot;&gt;Cadastro&lt;br&gt;(MongoDB)&lt;/font&gt;" style="image;sketch=0;aspect=fixed;html=1;points=[];align=center;fontSize=12;image=img/lib/mscae/Database_General.svg;labelBackgroundColor=#FFCCE6;" vertex="1" parent="1">
          <mxGeometry x="324.8" y="730" width="30.4" height="40" as="geometry" />
        </mxCell>
        <mxCell id="uTCx9pWXb5JIzM2R5Hj2-9" value="&lt;font style=&quot;font-size: 10px;&quot;&gt;Financeiro&lt;br&gt;(MongoDB)&lt;/font&gt;" style="image;sketch=0;aspect=fixed;html=1;points=[];align=center;fontSize=12;image=img/lib/mscae/Database_General.svg;labelBackgroundColor=#FFCCE6;" vertex="1" parent="1">
          <mxGeometry x="400" y="730" width="30.4" height="40" as="geometry" />
        </mxCell>
        <mxCell id="uTCx9pWXb5JIzM2R5Hj2-10" value="&lt;font style=&quot;font-size: 10px;&quot;&gt;Proposta&lt;br&gt;(Oracle)&lt;/font&gt;" style="image;sketch=0;aspect=fixed;html=1;points=[];align=center;fontSize=12;image=img/lib/mscae/Database_General.svg;labelBackgroundColor=#FFCCE6;" vertex="1" parent="1">
          <mxGeometry x="479.8" y="730" width="30.4" height="40" as="geometry" />
        </mxCell>
        <mxCell id="uTCx9pWXb5JIzM2R5Hj2-22" value="&lt;font style=&quot;font-size: 10px;&quot;&gt;&lt;b&gt;&lt;i&gt;SERASA (Rest)&lt;/i&gt;&lt;/b&gt;&lt;/font&gt;" style="image;sketch=0;aspect=fixed;html=1;points=[];align=center;fontSize=12;image=img/lib/mscae/Cloud_Services_Classic.svg;flipV=0;labelBackgroundColor=#FFF2CC;" vertex="1" parent="1">
          <mxGeometry x="1065" y="80" width="50" height="40" as="geometry" />
        </mxCell>
        <mxCell id="uTCx9pWXb5JIzM2R5Hj2-23" value="&lt;font style=&quot;font-size: 10px;&quot;&gt;&lt;b&gt;&lt;i&gt;SPC (Rest)&lt;/i&gt;&lt;/b&gt;&lt;/font&gt;" style="image;sketch=0;aspect=fixed;html=1;points=[];align=center;fontSize=12;image=img/lib/mscae/Cloud_Services_Classic.svg;flipV=0;labelBackgroundColor=#FFF2CC;" vertex="1" parent="1">
          <mxGeometry x="1065" y="178" width="50" height="40" as="geometry" />
        </mxCell>
        <mxCell id="uTCx9pWXb5JIzM2R5Hj2-24" value="&lt;font style=&quot;font-size: 10px;&quot;&gt;&lt;b&gt;&lt;i&gt;Risco de CrÃ©dito &lt;br&gt;(Rest)&lt;/i&gt;&lt;/b&gt;&lt;/font&gt;" style="image;sketch=0;aspect=fixed;html=1;points=[];align=center;fontSize=12;image=img/lib/mscae/Cloud_Services_Classic.svg;flipV=0;labelBackgroundColor=#FFF2CC;" vertex="1" parent="1">
          <mxGeometry x="1065" y="276" width="50" height="40" as="geometry" />
        </mxCell>
        <mxCell id="uTCx9pWXb5JIzM2R5Hj2-25" value="&lt;font style=&quot;font-size: 10px;&quot;&gt;&lt;b&gt;&lt;i&gt;Score (Rest)&lt;/i&gt;&lt;/b&gt;&lt;/font&gt;" style="image;sketch=0;aspect=fixed;html=1;points=[];align=center;fontSize=12;image=img/lib/mscae/Cloud_Services_Classic.svg;flipV=0;labelBackgroundColor=#FFF2CC;" vertex="1" parent="1">
          <mxGeometry x="1065" y="374" width="50" height="40" as="geometry" />
        </mxCell>
        <mxCell id="uTCx9pWXb5JIzM2R5Hj2-28" style="edgeStyle=orthogonalEdgeStyle;rounded=0;orthogonalLoop=1;jettySize=auto;html=1;entryX=-0.072;entryY=0.635;entryDx=0;entryDy=0;entryPerimeter=0;" edge="1" parent="1">
          <mxGeometry relative="1" as="geometry">
            <mxPoint x="940" y="104.02857142857141" as="sourcePoint" />
            <mxPoint x="1065" y="104.40000000000003" as="targetPoint" />
          </mxGeometry>
        </mxCell>
        <mxCell id="uTCx9pWXb5JIzM2R5Hj2-71" value="&lt;b&gt;&lt;font color=&quot;#cc0000&quot;&gt;06.1&lt;/font&gt;&lt;/b&gt;" style="edgeLabel;html=1;align=center;verticalAlign=middle;resizable=0;points=[];labelBackgroundColor=#FFF2CC;" connectable="0" vertex="1" parent="uTCx9pWXb5JIzM2R5Hj2-28">
          <mxGeometry x="0.7431" y="1" relative="1" as="geometry">
            <mxPoint x="-7" as="offset" />
          </mxGeometry>
        </mxCell>
        <mxCell id="uTCx9pWXb5JIzM2R5Hj2-29" style="edgeStyle=orthogonalEdgeStyle;rounded=0;orthogonalLoop=1;jettySize=auto;html=1;entryX=0.017;entryY=0.585;entryDx=0;entryDy=0;entryPerimeter=0;" edge="1" parent="1" source="uTCx9pWXb5JIzM2R5Hj2-26" target="uTCx9pWXb5JIzM2R5Hj2-23">
          <mxGeometry relative="1" as="geometry" />
        </mxCell>
        <mxCell id="uTCx9pWXb5JIzM2R5Hj2-72" value="&lt;b&gt;&lt;font color=&quot;#cc0000&quot;&gt;06.2&lt;/font&gt;&lt;/b&gt;" style="edgeLabel;html=1;align=center;verticalAlign=middle;resizable=0;points=[];labelBackgroundColor=#FFF2CC;" connectable="0" vertex="1" parent="uTCx9pWXb5JIzM2R5Hj2-29">
          <mxGeometry x="0.7781" relative="1" as="geometry">
            <mxPoint x="1" as="offset" />
          </mxGeometry>
        </mxCell>
        <mxCell id="uTCx9pWXb5JIzM2R5Hj2-30" style="edgeStyle=orthogonalEdgeStyle;rounded=0;orthogonalLoop=1;jettySize=auto;html=1;entryX=0.25;entryY=0.354;entryDx=0;entryDy=0;entryPerimeter=0;" edge="1" parent="1" source="uTCx9pWXb5JIzM2R5Hj2-26" target="lidMp0GeqIiUsfrIBxHL-8">
          <mxGeometry relative="1" as="geometry" />
        </mxCell>
        <mxCell id="uTCx9pWXb5JIzM2R5Hj2-75" value="&lt;b&gt;&lt;font color=&quot;#cc0000&quot;&gt;06.3&lt;/font&gt;&lt;/b&gt;" style="edgeLabel;html=1;align=center;verticalAlign=middle;resizable=0;points=[];labelBackgroundColor=#FFF2CC;" connectable="0" vertex="1" parent="uTCx9pWXb5JIzM2R5Hj2-30">
          <mxGeometry x="0.8639" relative="1" as="geometry">
            <mxPoint x="3" as="offset" />
          </mxGeometry>
        </mxCell>
        <mxCell id="uTCx9pWXb5JIzM2R5Hj2-31" style="edgeStyle=orthogonalEdgeStyle;rounded=0;orthogonalLoop=1;jettySize=auto;html=1;entryX=0.25;entryY=0.481;entryDx=0;entryDy=0;entryPerimeter=0;" edge="1" parent="1" source="uTCx9pWXb5JIzM2R5Hj2-26" target="lidMp0GeqIiUsfrIBxHL-8">
          <mxGeometry relative="1" as="geometry" />
        </mxCell>
        <mxCell id="uTCx9pWXb5JIzM2R5Hj2-77" value="&lt;b&gt;&lt;font color=&quot;#cc0000&quot;&gt;06.4&lt;/font&gt;&lt;/b&gt;" style="edgeLabel;html=1;align=center;verticalAlign=middle;resizable=0;points=[];labelBackgroundColor=#FFF2CC;" connectable="0" vertex="1" parent="uTCx9pWXb5JIzM2R5Hj2-31">
          <mxGeometry x="0.9026" relative="1" as="geometry">
            <mxPoint x="2" as="offset" />
          </mxGeometry>
        </mxCell>
        <mxCell id="uTCx9pWXb5JIzM2R5Hj2-38" style="edgeStyle=orthogonalEdgeStyle;rounded=0;orthogonalLoop=1;jettySize=auto;html=1;entryX=0.5;entryY=0;entryDx=0;entryDy=0;entryPerimeter=0;" edge="1" parent="1" source="uTCx9pWXb5JIzM2R5Hj2-26" target="uTCx9pWXb5JIzM2R5Hj2-32">
          <mxGeometry relative="1" as="geometry" />
        </mxCell>
        <mxCell id="uTCx9pWXb5JIzM2R5Hj2-67" value="&lt;b&gt;&lt;font color=&quot;#cc0000&quot;&gt;07&lt;/font&gt;&lt;/b&gt;" style="edgeLabel;html=1;align=center;verticalAlign=middle;resizable=0;points=[];labelBackgroundColor=#D5E8D4;" connectable="0" vertex="1" parent="uTCx9pWXb5JIzM2R5Hj2-38">
          <mxGeometry x="0.3162" y="-1" relative="1" as="geometry">
            <mxPoint as="offset" />
          </mxGeometry>
        </mxCell>
        <mxCell id="uTCx9pWXb5JIzM2R5Hj2-47" style="edgeStyle=orthogonalEdgeStyle;rounded=0;orthogonalLoop=1;jettySize=auto;html=1;entryX=1;entryY=0.51;entryDx=0;entryDy=0;entryPerimeter=0;" edge="1" parent="1" source="uTCx9pWXb5JIzM2R5Hj2-26" target="uTCx9pWXb5JIzM2R5Hj2-45">
          <mxGeometry relative="1" as="geometry" />
        </mxCell>
        <mxCell id="uTCx9pWXb5JIzM2R5Hj2-78" value="&lt;b&gt;&lt;font color=&quot;#cc0000&quot;&gt;12&lt;/font&gt;&lt;/b&gt;" style="edgeLabel;html=1;align=center;verticalAlign=middle;resizable=0;points=[];labelBackgroundColor=#D5E8D4;" connectable="0" vertex="1" parent="uTCx9pWXb5JIzM2R5Hj2-47">
          <mxGeometry x="0.1552" y="2" relative="1" as="geometry">
            <mxPoint as="offset" />
          </mxGeometry>
        </mxCell>
        <mxCell id="4MfUGldduUCBAgtX87cD-1" style="edgeStyle=orthogonalEdgeStyle;rounded=0;orthogonalLoop=1;jettySize=auto;html=1;" edge="1" parent="1" source="uTCx9pWXb5JIzM2R5Hj2-26" target="uTCx9pWXb5JIzM2R5Hj2-7">
          <mxGeometry relative="1" as="geometry">
            <Array as="points">
              <mxPoint x="870" y="105" />
              <mxPoint x="870" y="180" />
              <mxPoint x="580" y="180" />
              <mxPoint x="580" y="253" />
            </Array>
          </mxGeometry>
        </mxCell>
        <mxCell id="4MfUGldduUCBAgtX87cD-3" value="&lt;b&gt;&lt;font color=&quot;#cc0000&quot;&gt;15&lt;/font&gt;&lt;/b&gt;" style="edgeLabel;html=1;align=center;verticalAlign=middle;resizable=0;points=[];labelBackgroundColor=#D5E8D4;" connectable="0" vertex="1" parent="4MfUGldduUCBAgtX87cD-1">
          <mxGeometry x="-0.0031" y="-1" relative="1" as="geometry">
            <mxPoint as="offset" />
          </mxGeometry>
        </mxCell>
        <mxCell id="uTCx9pWXb5JIzM2R5Hj2-26" value="&lt;font style=&quot;font-size: 10px;&quot;&gt;sboot-archhex-&lt;br&gt;orch-crdt-&lt;br&gt;contratacao-credito&lt;/font&gt;" style="outlineConnect=0;dashed=0;verticalLabelPosition=bottom;verticalAlign=top;align=center;html=1;shape=mxgraph.aws3.application_load_balancer;fillColor=#F58534;gradientColor=none;" vertex="1" parent="1">
          <mxGeometry x="890" y="80" width="50" height="50" as="geometry" />
        </mxCell>
        <mxCell id="uTCx9pWXb5JIzM2R5Hj2-40" style="edgeStyle=orthogonalEdgeStyle;rounded=0;orthogonalLoop=1;jettySize=auto;html=1;" edge="1" parent="1" source="uTCx9pWXb5JIzM2R5Hj2-32" target="uTCx9pWXb5JIzM2R5Hj2-35">
          <mxGeometry relative="1" as="geometry" />
        </mxCell>
        <mxCell id="uTCx9pWXb5JIzM2R5Hj2-68" value="&lt;b&gt;&lt;font color=&quot;#cc0000&quot;&gt;08&lt;/font&gt;&lt;/b&gt;" style="edgeLabel;html=1;align=center;verticalAlign=middle;resizable=0;points=[];labelBackgroundColor=#D5E8D4;" connectable="0" vertex="1" parent="uTCx9pWXb5JIzM2R5Hj2-40">
          <mxGeometry x="0.3184" relative="1" as="geometry">
            <mxPoint y="-14" as="offset" />
          </mxGeometry>
        </mxCell>
        <mxCell id="uTCx9pWXb5JIzM2R5Hj2-32" value="&lt;font style=&quot;font-size: 10px;&quot;&gt;Fila Contratacao (Kafka)&lt;/font&gt;" style="sketch=0;aspect=fixed;pointerEvents=1;shadow=0;dashed=0;html=1;strokeColor=none;labelPosition=center;verticalLabelPosition=bottom;verticalAlign=top;align=center;fillColor=#00188D;shape=mxgraph.azure.queue_generic" vertex="1" parent="1">
          <mxGeometry x="875" y="218" width="80" height="24" as="geometry" />
        </mxCell>
        <mxCell id="uTCx9pWXb5JIzM2R5Hj2-42" style="edgeStyle=orthogonalEdgeStyle;rounded=0;orthogonalLoop=1;jettySize=auto;html=1;entryX=0;entryY=0.5;entryDx=0;entryDy=0;entryPerimeter=0;" edge="1" parent="1" source="uTCx9pWXb5JIzM2R5Hj2-33" target="uTCx9pWXb5JIzM2R5Hj2-26">
          <mxGeometry relative="1" as="geometry" />
        </mxCell>
        <mxCell id="uTCx9pWXb5JIzM2R5Hj2-70" value="&lt;b&gt;&lt;font color=&quot;#cc0000&quot;&gt;10&lt;/font&gt;&lt;/b&gt;" style="edgeLabel;html=1;align=center;verticalAlign=middle;resizable=0;points=[];labelBackgroundColor=#D5E8D4;" connectable="0" vertex="1" parent="uTCx9pWXb5JIzM2R5Hj2-42">
          <mxGeometry x="-0.0742" y="1" relative="1" as="geometry">
            <mxPoint as="offset" />
          </mxGeometry>
        </mxCell>
        <mxCell id="uTCx9pWXb5JIzM2R5Hj2-33" value="&lt;font style=&quot;font-size: 10px;&quot;&gt;Fila Finalizacao (Kafka)&lt;/font&gt;" style="sketch=0;aspect=fixed;pointerEvents=1;shadow=0;dashed=0;html=1;strokeColor=none;labelPosition=center;verticalLabelPosition=bottom;verticalAlign=top;align=center;fillColor=#00188D;shape=mxgraph.azure.queue_generic" vertex="1" parent="1">
          <mxGeometry x="729" y="218" width="80" height="24" as="geometry" />
        </mxCell>
        <mxCell id="uTCx9pWXb5JIzM2R5Hj2-41" style="edgeStyle=orthogonalEdgeStyle;rounded=0;orthogonalLoop=1;jettySize=auto;html=1;" edge="1" parent="1" source="uTCx9pWXb5JIzM2R5Hj2-35" target="uTCx9pWXb5JIzM2R5Hj2-33">
          <mxGeometry relative="1" as="geometry" />
        </mxCell>
        <mxCell id="uTCx9pWXb5JIzM2R5Hj2-69" value="&lt;b&gt;&lt;font color=&quot;#cc0000&quot;&gt;09.1&lt;/font&gt;&lt;/b&gt;" style="edgeLabel;html=1;align=center;verticalAlign=middle;resizable=0;points=[];labelBackgroundColor=#D5E8D4;" connectable="0" vertex="1" parent="uTCx9pWXb5JIzM2R5Hj2-41">
          <mxGeometry x="0.3917" y="2" relative="1" as="geometry">
            <mxPoint y="-32" as="offset" />
          </mxGeometry>
        </mxCell>
        <mxCell id="uTCx9pWXb5JIzM2R5Hj2-43" style="edgeStyle=orthogonalEdgeStyle;rounded=0;orthogonalLoop=1;jettySize=auto;html=1;entryX=0.5;entryY=0;entryDx=0;entryDy=0;entryPerimeter=0;" edge="1" parent="1" source="uTCx9pWXb5JIzM2R5Hj2-35" target="uTCx9pWXb5JIzM2R5Hj2-36">
          <mxGeometry relative="1" as="geometry" />
        </mxCell>
        <mxCell id="uTCx9pWXb5JIzM2R5Hj2-73" value="&lt;b&gt;&lt;font color=&quot;#cc0000&quot;&gt;09.2&lt;/font&gt;&lt;/b&gt;" style="edgeLabel;html=1;align=center;verticalAlign=middle;resizable=0;points=[];labelBackgroundColor=#D5E8D4;" connectable="0" vertex="1" parent="uTCx9pWXb5JIzM2R5Hj2-43">
          <mxGeometry x="0.2808" relative="1" as="geometry">
            <mxPoint y="7" as="offset" />
          </mxGeometry>
        </mxCell>
        <mxCell id="uTCx9pWXb5JIzM2R5Hj2-44" style="edgeStyle=orthogonalEdgeStyle;rounded=0;orthogonalLoop=1;jettySize=auto;html=1;" edge="1" parent="1" source="uTCx9pWXb5JIzM2R5Hj2-36" target="uTCx9pWXb5JIzM2R5Hj2-37">
          <mxGeometry relative="1" as="geometry" />
        </mxCell>
        <mxCell id="uTCx9pWXb5JIzM2R5Hj2-74" value="&lt;b&gt;&lt;font color=&quot;#cc0000&quot;&gt;11&lt;/font&gt;&lt;/b&gt;" style="edgeLabel;html=1;align=center;verticalAlign=middle;resizable=0;points=[];labelBackgroundColor=#D5E8D4;" connectable="0" vertex="1" parent="uTCx9pWXb5JIzM2R5Hj2-44">
          <mxGeometry x="0.2852" relative="1" as="geometry">
            <mxPoint as="offset" />
          </mxGeometry>
        </mxCell>
        <mxCell id="uTCx9pWXb5JIzM2R5Hj2-36" value="&lt;font style=&quot;font-size: 10px;&quot;&gt;Fila Liberacao&lt;br&gt;Credito (Kafka)&lt;/font&gt;" style="sketch=0;aspect=fixed;pointerEvents=1;shadow=0;dashed=0;html=1;strokeColor=none;labelPosition=center;verticalLabelPosition=bottom;verticalAlign=top;align=center;fillColor=#00188D;shape=mxgraph.azure.queue_generic;flipH=0;" vertex="1" parent="1">
          <mxGeometry x="875" y="468" width="80" height="24" as="geometry" />
        </mxCell>
        <mxCell id="rW1r06RY9FfZZGZYce1W-3" style="edgeStyle=orthogonalEdgeStyle;rounded=0;orthogonalLoop=1;jettySize=auto;html=1;" edge="1" parent="1" source="uTCx9pWXb5JIzM2R5Hj2-37" target="uTCx9pWXb5JIzM2R5Hj2-7">
          <mxGeometry relative="1" as="geometry">
            <Array as="points">
              <mxPoint x="510" y="605" />
            </Array>
          </mxGeometry>
        </mxCell>
        <mxCell id="rW1r06RY9FfZZGZYce1W-4" value="&lt;b&gt;&lt;font color=&quot;#cc0000&quot;&gt;17&lt;/font&gt;&lt;/b&gt;" style="edgeLabel;html=1;align=center;verticalAlign=middle;resizable=0;points=[];labelBackgroundColor=#D5E8D4;" connectable="0" vertex="1" parent="rW1r06RY9FfZZGZYce1W-3">
          <mxGeometry x="-0.5131" relative="1" as="geometry">
            <mxPoint as="offset" />
          </mxGeometry>
        </mxCell>
        <mxCell id="uTCx9pWXb5JIzM2R5Hj2-37" value="&lt;font style=&quot;font-size: 10px;&quot;&gt;sboot-archhex-&lt;br&gt;orch-crdt-&lt;br&gt;liberacao-credito&lt;/font&gt;" style="outlineConnect=0;dashed=0;verticalLabelPosition=bottom;verticalAlign=top;align=center;html=1;shape=mxgraph.aws3.application_load_balancer;fillColor=#F58534;gradientColor=none;flipH=0;" vertex="1" parent="1">
          <mxGeometry x="890" y="580" width="50" height="50" as="geometry" />
        </mxCell>
        <mxCell id="4MfUGldduUCBAgtX87cD-4" style="edgeStyle=orthogonalEdgeStyle;rounded=0;orthogonalLoop=1;jettySize=auto;html=1;" edge="1" parent="1" source="uTCx9pWXb5JIzM2R5Hj2-35" target="uTCx9pWXb5JIzM2R5Hj2-7">
          <mxGeometry relative="1" as="geometry">
            <Array as="points">
              <mxPoint x="915" y="310" />
              <mxPoint x="580" y="310" />
              <mxPoint x="580" y="253" />
            </Array>
          </mxGeometry>
        </mxCell>
        <mxCell id="4MfUGldduUCBAgtX87cD-5" value="&lt;span style=&quot;background-color: rgb(213, 232, 212);&quot;&gt;&lt;b&gt;&lt;font color=&quot;#cc0000&quot;&gt;16&lt;/font&gt;&lt;/b&gt;&lt;/span&gt;" style="edgeLabel;html=1;align=center;verticalAlign=middle;resizable=0;points=[];" connectable="0" vertex="1" parent="4MfUGldduUCBAgtX87cD-4">
          <mxGeometry x="-0.0331" y="2" relative="1" as="geometry">
            <mxPoint as="offset" />
          </mxGeometry>
        </mxCell>
        <mxCell id="uTCx9pWXb5JIzM2R5Hj2-35" value="&lt;font style=&quot;font-size: 10px;&quot;&gt;sboot-archhex-&lt;br&gt;orch-crdt-&lt;br&gt;analise-credito&lt;/font&gt;" style="outlineConnect=0;dashed=0;verticalLabelPosition=bottom;verticalAlign=top;align=center;html=1;shape=mxgraph.aws3.application_load_balancer;fillColor=#F58534;gradientColor=none;flipH=0;" vertex="1" parent="1">
          <mxGeometry x="890" y="330" width="50" height="50" as="geometry" />
        </mxCell>
        <mxCell id="uTCx9pWXb5JIzM2R5Hj2-48" style="edgeStyle=orthogonalEdgeStyle;rounded=0;orthogonalLoop=1;jettySize=auto;html=1;entryX=0.5;entryY=0;entryDx=0;entryDy=0;entryPerimeter=0;" edge="1" parent="1" source="uTCx9pWXb5JIzM2R5Hj2-45" target="uTCx9pWXb5JIzM2R5Hj2-46">
          <mxGeometry relative="1" as="geometry" />
        </mxCell>
        <mxCell id="uTCx9pWXb5JIzM2R5Hj2-79" value="&lt;font color=&quot;#cc0000&quot;&gt;13&lt;/font&gt;" style="edgeLabel;html=1;align=center;verticalAlign=middle;resizable=0;points=[];fontStyle=1;labelBackgroundColor=#D5E8D4;" connectable="0" vertex="1" parent="uTCx9pWXb5JIzM2R5Hj2-48">
          <mxGeometry x="0.2402" y="1" relative="1" as="geometry">
            <mxPoint as="offset" />
          </mxGeometry>
        </mxCell>
        <mxCell id="uTCx9pWXb5JIzM2R5Hj2-45" value="&lt;font style=&quot;font-size: 10px;&quot;&gt;Fila Notificacao&lt;br&gt;Email (Kafka)&lt;br&gt;&lt;/font&gt;" style="sketch=0;aspect=fixed;pointerEvents=1;shadow=0;dashed=0;html=1;strokeColor=none;labelPosition=center;verticalLabelPosition=bottom;verticalAlign=top;align=center;fillColor=#00188D;shape=mxgraph.azure.queue_generic" vertex="1" parent="1">
          <mxGeometry x="620" y="93" width="80" height="24" as="geometry" />
        </mxCell>
        <mxCell id="uTCx9pWXb5JIzM2R5Hj2-50" style="edgeStyle=orthogonalEdgeStyle;rounded=0;orthogonalLoop=1;jettySize=auto;html=1;" edge="1" parent="1" source="uTCx9pWXb5JIzM2R5Hj2-46" target="uTCx9pWXb5JIzM2R5Hj2-49">
          <mxGeometry relative="1" as="geometry" />
        </mxCell>
        <mxCell id="uTCx9pWXb5JIzM2R5Hj2-80" value="&lt;b&gt;&lt;font color=&quot;#cc0000&quot;&gt;14&lt;/font&gt;&lt;/b&gt;" style="edgeLabel;html=1;align=center;verticalAlign=middle;resizable=0;points=[];labelBackgroundColor=#D5E8D4;" connectable="0" vertex="1" parent="uTCx9pWXb5JIzM2R5Hj2-50">
          <mxGeometry x="0.5859" relative="1" as="geometry">
            <mxPoint y="-23" as="offset" />
          </mxGeometry>
        </mxCell>
        <mxCell id="rW1r06RY9FfZZGZYce1W-7" value="" style="edgeStyle=orthogonalEdgeStyle;rounded=0;orthogonalLoop=1;jettySize=auto;html=1;" edge="1" parent="1" source="uTCx9pWXb5JIzM2R5Hj2-46" target="uTCx9pWXb5JIzM2R5Hj2-49">
          <mxGeometry relative="1" as="geometry" />
        </mxCell>
        <mxCell id="uTCx9pWXb5JIzM2R5Hj2-46" value="&lt;font style=&quot;font-size: 10px;&quot;&gt;Sistema Notificacao&lt;br&gt;Email&lt;/font&gt;" style="sketch=0;points=[[0,0,0],[0.25,0,0],[0.5,0,0],[0.75,0,0],[1,0,0],[0,1,0],[0.25,1,0],[0.5,1,0],[0.75,1,0],[1,1,0],[0,0.25,0],[0,0.5,0],[0,0.75,0],[1,0.25,0],[1,0.5,0],[1,0.75,0]];outlineConnect=0;fontColor=#232F3E;gradientColor=#4D72F3;gradientDirection=north;fillColor=#3334B9;strokeColor=#ffffff;dashed=0;verticalLabelPosition=bottom;verticalAlign=top;align=center;html=1;fontSize=12;fontStyle=0;aspect=fixed;shape=mxgraph.aws4.resourceIcon;resIcon=mxgraph.aws4.simple_email_service;" vertex="1" parent="1">
          <mxGeometry x="635" y="205" width="50" height="50" as="geometry" />
        </mxCell>
        <mxCell id="uTCx9pWXb5JIzM2R5Hj2-49" value="&lt;font style=&quot;font-size: 10px;&quot;&gt;Servidor de Email&lt;/font&gt;" style="image;aspect=fixed;perimeter=ellipsePerimeter;html=1;align=center;shadow=0;dashed=0;spacingTop=-6;image=img/lib/active_directory/internet_cloud.svg;labelBackgroundColor=#D5E8D4;" vertex="1" parent="1">
          <mxGeometry x="635" y="339.25" width="50" height="31.5" as="geometry" />
        </mxCell>
        <mxCell id="uTCx9pWXb5JIzM2R5Hj2-55" style="edgeStyle=orthogonalEdgeStyle;rounded=0;orthogonalLoop=1;jettySize=auto;html=1;" edge="1" parent="1" source="uTCx9pWXb5JIzM2R5Hj2-51" target="uTCx9pWXb5JIzM2R5Hj2-26">
          <mxGeometry relative="1" as="geometry" />
        </mxCell>
        <mxCell id="uTCx9pWXb5JIzM2R5Hj2-66" value="&lt;b&gt;&lt;font color=&quot;#cc0000&quot;&gt;05&lt;/font&gt;&lt;/b&gt;" style="edgeLabel;html=1;align=center;verticalAlign=middle;resizable=0;points=[];labelBackgroundColor=#D5E8D4;" connectable="0" vertex="1" parent="uTCx9pWXb5JIzM2R5Hj2-55">
          <mxGeometry x="0.1324" y="-1" relative="1" as="geometry">
            <mxPoint as="offset" />
          </mxGeometry>
        </mxCell>
        <mxCell id="uTCx9pWXb5JIzM2R5Hj2-51" value="&lt;font style=&quot;font-size: 10px;&quot;&gt;Fila Proposta (Kafka)&lt;br&gt;&lt;/font&gt;" style="sketch=0;aspect=fixed;pointerEvents=1;shadow=0;dashed=0;html=1;strokeColor=none;labelPosition=center;verticalLabelPosition=bottom;verticalAlign=top;align=center;fillColor=#00188D;shape=mxgraph.azure.queue_generic" vertex="1" parent="1">
          <mxGeometry x="520" y="36" width="80" height="24" as="geometry" />
        </mxCell>
        <mxCell id="uTCx9pWXb5JIzM2R5Hj2-56" value="&lt;font color=&quot;#cc0000&quot; style=&quot;font-size: 10px;&quot;&gt;&lt;b style=&quot;&quot;&gt;JWT&lt;/b&gt;&lt;/font&gt;" style="image;aspect=fixed;html=1;points=[];align=center;fontSize=12;image=img/lib/azure2/security/Keys.svg;labelBackgroundColor=#B9E0A5;labelBorderColor=default;" vertex="1" parent="1">
          <mxGeometry x="245" y="131.89" width="40" height="42.22" as="geometry" />
        </mxCell>
        <mxCell id="Jfq7vuLHcnrdFuUKZRY4-10" style="edgeStyle=orthogonalEdgeStyle;rounded=0;orthogonalLoop=1;jettySize=auto;html=1;" edge="1" parent="1" source="Jfq7vuLHcnrdFuUKZRY4-3" target="Jfq7vuLHcnrdFuUKZRY4-4">
          <mxGeometry relative="1" as="geometry" />
        </mxCell>
        <mxCell id="Jfq7vuLHcnrdFuUKZRY4-3" value="&lt;font style=&quot;font-size: 10px;&quot;&gt;Promethrus&lt;br&gt;(ServiÃ§o Global)&lt;br&gt;&lt;/font&gt;" style="pointerEvents=1;shadow=0;dashed=0;html=1;strokeColor=none;fillColor=#4495D1;labelPosition=center;verticalLabelPosition=bottom;verticalAlign=top;align=center;outlineConnect=0;shape=mxgraph.veeam.cpu;" vertex="1" parent="1">
          <mxGeometry x="670" y="480" width="44.8" height="44.8" as="geometry" />
        </mxCell>
        <mxCell id="Jfq7vuLHcnrdFuUKZRY4-11" style="edgeStyle=orthogonalEdgeStyle;rounded=0;orthogonalLoop=1;jettySize=auto;html=1;entryX=0.5;entryY=0;entryDx=0;entryDy=0;" edge="1" parent="1" source="Jfq7vuLHcnrdFuUKZRY4-4" target="Jfq7vuLHcnrdFuUKZRY4-6">
          <mxGeometry relative="1" as="geometry" />
        </mxCell>
        <mxCell id="Jfq7vuLHcnrdFuUKZRY4-4" value="&lt;font style=&quot;font-size: 10px;&quot;&gt;Alert Manager&lt;br&gt;(ServiÃ§o Global)&lt;br&gt;&lt;/font&gt;" style="pointerEvents=1;shadow=0;dashed=0;html=1;strokeColor=none;fillColor=#4495D1;labelPosition=center;verticalLabelPosition=bottom;verticalAlign=top;align=center;outlineConnect=0;shape=mxgraph.veeam.cpu;" vertex="1" parent="1">
          <mxGeometry x="764.2" y="510" width="44.8" height="44.8" as="geometry" />
        </mxCell>
        <mxCell id="Jfq7vuLHcnrdFuUKZRY4-9" style="edgeStyle=orthogonalEdgeStyle;rounded=0;orthogonalLoop=1;jettySize=auto;html=1;" edge="1" parent="1" source="Jfq7vuLHcnrdFuUKZRY4-5" target="Jfq7vuLHcnrdFuUKZRY4-3">
          <mxGeometry relative="1" as="geometry" />
        </mxCell>
        <mxCell id="Jfq7vuLHcnrdFuUKZRY4-5" value="&lt;font style=&quot;font-size: 10px;&quot;&gt;Grafana Loki&lt;br&gt;(ServiÃ§o Global)&lt;br&gt;&lt;/font&gt;" style="pointerEvents=1;shadow=0;dashed=0;html=1;strokeColor=none;fillColor=#4495D1;labelPosition=center;verticalLabelPosition=bottom;verticalAlign=top;align=center;outlineConnect=0;shape=mxgraph.veeam.cpu;" vertex="1" parent="1">
          <mxGeometry x="570" y="510" width="44.8" height="44.8" as="geometry" />
        </mxCell>
        <mxCell id="Jfq7vuLHcnrdFuUKZRY4-12" style="edgeStyle=orthogonalEdgeStyle;rounded=0;orthogonalLoop=1;jettySize=auto;html=1;exitX=0.5;exitY=1;exitDx=0;exitDy=0;" edge="1" parent="1" source="Jfq7vuLHcnrdFuUKZRY4-6">
          <mxGeometry relative="1" as="geometry">
            <mxPoint x="787" y="650" as="sourcePoint" />
            <mxPoint x="1090.0000000000002" y="630" as="targetPoint" />
            <Array as="points">
              <mxPoint x="787" y="684" />
              <mxPoint x="1090" y="684" />
            </Array>
          </mxGeometry>
        </mxCell>
        <mxCell id="Jfq7vuLHcnrdFuUKZRY4-6" value="&lt;font style=&quot;font-size: 10px;&quot;&gt;Internet&lt;/font&gt;" style="image;aspect=fixed;perimeter=ellipsePerimeter;html=1;align=center;shadow=0;dashed=0;spacingTop=-1;image=img/lib/active_directory/internet_cloud.svg;labelBackgroundColor=#D5E8D4;" vertex="1" parent="1">
          <mxGeometry x="761.6" y="610" width="50" height="31.5" as="geometry" />
        </mxCell>
        <mxCell id="Jfq7vuLHcnrdFuUKZRY4-8" value="" style="shape=image;html=1;verticalAlign=top;verticalLabelPosition=bottom;labelBackgroundColor=#ffffff;imageAspect=0;aspect=fixed;image=https://cdn2.iconfinder.com/data/icons/social-media-2285/512/1_Slack_colored_svg-128.png" vertex="1" parent="1">
          <mxGeometry x="1065" y="580" width="50" height="50" as="geometry" />
        </mxCell>
        <mxCell id="Jfq7vuLHcnrdFuUKZRY4-20" value="" style="edgeStyle=orthogonalEdgeStyle;rounded=0;orthogonalLoop=1;jettySize=auto;html=1;" edge="1" parent="1" source="Jfq7vuLHcnrdFuUKZRY4-15" target="Jfq7vuLHcnrdFuUKZRY4-3">
          <mxGeometry relative="1" as="geometry" />
        </mxCell>
        <mxCell id="Jfq7vuLHcnrdFuUKZRY4-15" value="&lt;font style=&quot;font-size: 9px;&quot;&gt;&amp;nbsp;1 - sboot-archhex-orch-crdt-proposta-credito&lt;br&gt;&amp;nbsp;2 - sboot-archhex-&lt;span style=&quot;font-size: 10px;&quot;&gt;orch-crdt-&lt;/span&gt;&lt;span style=&quot;font-size: 10px;&quot;&gt;contratacao-credito&amp;nbsp;&amp;nbsp;&lt;br&gt;&lt;/span&gt;&amp;nbsp;3 - sboot-archhex-&lt;span style=&quot;font-size: 10px;&quot;&gt;orch-crdt-&lt;/span&gt;&lt;span style=&quot;font-size: 10px;&quot;&gt;analise-credito&lt;br&gt;&lt;div style=&quot;&quot;&gt;&lt;span style=&quot;font-size: 9px;&quot;&gt;&amp;nbsp;4 - sboot-archhex-&lt;/span&gt;&lt;span style=&quot;&quot;&gt;orch-crdt-&lt;/span&gt;&lt;span style=&quot;&quot;&gt;liberacao-credito&lt;/span&gt;&lt;/div&gt;&lt;/span&gt;&lt;/font&gt;" style="text;strokeColor=none;align=left;fillColor=none;html=1;verticalAlign=middle;whiteSpace=wrap;rounded=0;labelBackgroundColor=none;labelBorderColor=#808080;spacingTop=0;spacing=2;spacingLeft=0;fontColor=#808080;" vertex="1" parent="1">
          <mxGeometry x="582.07" y="397" width="220.65" height="60" as="geometry" />
        </mxCell>
      </root>
    </mxGraphModel>
  </diagram>
</mxfile>
